/* XPM */
static char* ea[] = {
"64 64 2 1",
" 	c #6B2A3C",
"X	c #000000",
"                                                                ",
"                                                                ",
"                                                                ",
"                                                                ",
"                                                                ",
"                                                                ",
"                                                                ",
"                                                                ",
"                                                                ",
"                                                                ",
"                                                                ",
"                                                                ",
"                                                                ",
"                                                                ",
"                                                                ",
"                                                                ",
"                                                                ",
"                                                                ",
"                                                                ",
"                                                                ",
"              XXXXXXXXXXXXXXX           XXXXX                   ",
"              XXXXXXXXXXXXXXX           XXXXX                   ",
"              XXXXXXXXXXXXXXX           XXXXX                   ",
"              XXX                      XXX XXX                  ",
"              XXX                      XXX XXX                  ",
"              XXX                      XXX XXX                  ",
"              XXX                     XXX   XXX                 ",
"              XXX                     XXX   XXX                 ",
"              XXX                    XXX     XXX                ",
"              XXXXXXXXXXXXXX         XXX     XXX                ",
"              XXXXXXXXXXXXXX         XXX     XXX                ",
"              XXXXXXXXXXXXXX        XXX       XXX               ",
"              XXX                   XXX       XXX               ",
"              XXX                   XXXXXXXXXXXXX               ",
"              XXX                  XXXXXXXXXXXXXXX              ",
"              XXX                  XXXXXXXXXXXXXXX              ",
"              XXX                 XXX           XXX             ",
"              XXX                 XXX           XXX             ",
"              XXX                 XXX           XXX             ",
"              XXX                XXX             XXX            ",
"              XXXXXXXXXXXXXXXX   XXX             XXX            ",
"              XXXXXXXXXXXXXXXX   XXX             XXX            ",
"              XXXXXXXXXXXXXXXX  XXX               XXX           ",
"                                                                ",
"                                                                ",
"                                                                ",
"                                                                ",
"                                                                ",
"                                                                ",
"                                                                ",
"                                                                ",
"                                                                ",
"                                                                ",
"                                                                ",
"                                                                ",
"                                                                ",
"                                                                ",
"                                                                ",
"                                                                ",
"                                                                ",
"                                                                ",
"                                                                ",
"                                                                ",
"                                                                "};