/* XPM */
static char* no[] = {
"64 64 2 1",
" 	c #B81140",
"X	c #000000",
"                                                                ",
"                                                                ",
"                                                                ",
"                                                                ",
"                                                                ",
"                                                                ",
"                                                                ",
"                                                                ",
"                                                                ",
"                                                                ",
"                                                                ",
"                                                                ",
"                                                                ",
"                                                                ",
"                                                                ",
"                                                                ",
"                                                                ",
"                                                                ",
"                                                                ",
"                                                                ",
"           XXX           XXX            XXXXXXX                 ",
"           XXXX          XXX         XXXXXXXXXXXXX              ",
"           XXXXX         XXX        XXXXXXXXXXXXXXX             ",
"           XXXXX         XXX       XXXXX       XXXXX            ",
"           XXXXXX        XXX      XXXX           XXXX           ",
"           XXXXXX        XXX     XXXX             XXXX          ",
"           XXX XXX       XXX     XXX               XXX          ",
"           XXX  XXX      XXX     XXX               XXX          ",
"           XXX  XXX      XXX    XXX                 XXX         ",
"           XXX   XXX     XXX    XXX                 XXX         ",
"           XXX   XXX     XXX    XXX                 XXX         ",
"           XXX    XXX    XXX    XXX                 XXX         ",
"           XXX     XXX   XXX    XXX                 XXX         ",
"           XXX     XXX   XXX    XXX                 XXX         ",
"           XXX      XXX  XXX    XXX                 XXX         ",
"           XXX      XXX  XXX     XXX               XXX          ",
"           XXX       XXX XXX     XXX               XXX          ",
"           XXX        XXXXXX     XXXX             XXXX          ",
"           XXX        XXXXXX      XXXX           XXXX           ",
"           XXX         XXXXX       XXXXX       XXXXX            ",
"           XXX         XXXXX        XXXXXXXXXXXXXXX             ",
"           XXX          XXXX         XXXXXXXXXXXXX              ",
"           XXX           XXX            XXXXXXX                 ",
"                                                                ",
"                                                                ",
"                                                                ",
"                                                                ",
"                                                                ",
"                                                                ",
"                                                                ",
"                                                                ",
"                                                                ",
"                                                                ",
"                                                                ",
"                                                                ",
"                                                                ",
"                                                                ",
"                                                                ",
"                                                                ",
"                                                                ",
"                                                                ",
"                                                                ",
"                                                                ",
"                                                                "};