/* XPM */
static char* so[] = {
"64 64 2 1",
" 	c #EB1651",
"X	c #000000",
"                                                                ",
"                                                                ",
"                                                                ",
"                                                                ",
"                                                                ",
"                                                                ",
"                                                                ",
"                                                                ",
"                                                                ",
"                                                                ",
"                                                                ",
"                                                                ",
"                                                                ",
"                                                                ",
"                                                                ",
"                                                                ",
"                                                                ",
"                                                                ",
"                                                                ",
"                                                                ",
"               XXXXXXX                 XXXXXXX                  ",
"             XXXXXXXXXXX            XXXXXXXXXXXXX               ",
"            XXXXXXXXXXXXX          XXXXXXXXXXXXXXX              ",
"            XXXX      XXXX        XXXXX       XXXXX             ",
"           XXXX        XXXX      XXXX           XXXX            ",
"           XXX          XXX     XXXX             XXXX           ",
"           XXX          XXX     XXX               XXX           ",
"           XXX                  XXX               XXX           ",
"            XXX                XXX                 XXX          ",
"            XXXXXXX            XXX                 XXX          ",
"             XXXXXXXXXX        XXX                 XXX          ",
"               XXXXXXXXXX      XXX                 XXX          ",
"                   XXXXXXX     XXX                 XXX          ",
"                      XXXXX    XXX                 XXX          ",
"                        XXXX   XXX                 XXX          ",
"          XXX            XXX    XXX               XXX           ",
"          XXX            XXX    XXX               XXX           ",
"          XXXX           XXX    XXXX             XXXX           ",
"           XXX          XXXX     XXXX           XXXX            ",
"           XXXXX      XXXXX       XXXXX       XXXXX             ",
"            XXXXXXXXXXXXXX         XXXXXXXXXXXXXXX              ",
"             XXXXXXXXXXXX           XXXXXXXXXXXXX               ",
"                XXXXXXX                XXXXXXX                  ",
"                                                                ",
"                                                                ",
"                                                                ",
"                                                                ",
"                                                                ",
"                                                                ",
"                                                                ",
"                                                                ",
"                                                                ",
"                                                                ",
"                                                                ",
"                                                                ",
"                                                                ",
"                                                                ",
"                                                                ",
"                                                                ",
"                                                                ",
"                                                                ",
"                                                                ",
"                                                                ",
"                                                                "};